<svg width="1034" height="829" viewBox="0 0 1034 829" fill="none" xmlns="http://www.w3.org/2000/svg">
<path d="M516.836 630.764C800.896 630.764 1031.18 533.806 1031.18 414.202C1031.18 294.598 800.896 197.64 516.836 197.64C232.776 197.64 2.5 294.598 2.5 414.202C2.5 533.806 232.776 630.764 516.836 630.764Z" stroke="black" style="stroke:black;stroke-opacity:1;" stroke-width="5"/>
<path d="M338.665 517.069C465.744 737.182 648.532 869.552 746.934 812.742C845.336 755.932 822.087 531.443 695.007 311.335C567.928 91.2266 385.14 -41.1514 286.738 15.6606C188.337 72.4726 211.585 296.961 338.665 517.069Z" stroke="black" style="stroke:black;stroke-opacity:1;" stroke-width="5"/>
<path d="M352.731 319.456C240.602 513.669 223.176 713.529 313.809 765.852C404.441 818.182 568.812 703.161 680.941 508.948C793.07 314.735 810.496 114.875 719.863 62.5478C629.231 10.2218 464.86 125.243 352.731 319.456Z" stroke="black" style="stroke:black;stroke-opacity:1;" stroke-width="5"/>
<path d="M516.898 561.833L516.201 562.191L515.504 561.834L516.202 560.477L516.898 561.833ZM654.542 325.206V326.355H652.042V327.355H654.541C654.54 327.497 654.539 327.669 654.539 327.871C654.537 328.533 654.533 329.51 654.524 330.765V330.766C654.507 333.278 654.472 336.913 654.403 341.402C654.266 350.381 653.991 362.789 653.44 376.498C652.342 403.854 650.141 436.612 645.698 457.619C643.327 468.824 633.76 480.867 621.4 492.438C608.933 504.109 593.198 515.683 577.814 525.906C562.417 536.137 547.305 545.059 536.047 551.42C531.825 553.806 528.142 555.834 525.187 557.437L522.482 558.895C520.849 559.769 519.567 560.446 518.693 560.904C518.314 561.103 518.011 561.26 517.79 561.375L516.647 559.154L516.203 558.29L515.757 559.154L514.614 561.374C514.392 561.259 514.089 561.102 513.712 560.904C512.838 560.446 511.556 559.769 509.923 558.895C507.474 557.582 504.235 555.824 500.392 553.685L496.356 551.42C485.099 545.059 469.986 536.137 454.589 525.906C439.204 515.683 423.47 504.109 411.002 492.438C398.644 480.867 389.076 468.824 386.707 457.619C382.261 436.602 380.261 403.782 379.362 376.373C378.912 362.635 378.736 350.201 378.674 341.201C378.643 336.701 378.64 333.058 378.645 330.539V330.538C378.647 329.279 378.651 328.301 378.654 327.638C378.655 327.439 378.656 327.264 378.657 327.12C379.065 327.123 379.807 327.129 381.157 327.142L381.166 326.142L378.666 326.118L378.676 324.979L517.004 266.392L654.542 325.206ZM516.799 271.909L383.955 328.173L383.651 328.302L383.65 328.632L383.645 330.549C383.64 333.054 383.643 336.683 383.674 341.166C383.736 350.135 383.911 362.525 384.359 376.208C385.259 403.641 387.255 436.052 391.598 456.585C393.623 466.156 402.134 477.286 414.42 488.789C426.599 500.19 442.078 511.588 457.357 521.741C472.623 531.886 487.625 540.745 498.817 547.068C504.409 550.228 509.047 552.754 512.284 554.488C513.863 555.334 515.109 555.992 515.969 556.442L516.201 556.564L516.433 556.442C517.293 555.992 518.539 555.334 520.12 554.488H520.121C523.357 552.754 527.995 550.228 533.588 547.068C544.779 540.745 559.78 531.886 575.047 521.741C590.326 511.588 605.805 500.19 617.984 488.789C630.27 477.286 638.781 466.156 640.805 456.585C645.151 436.043 647.346 403.677 648.445 376.298C648.993 362.64 649.267 350.275 649.404 341.325C649.473 336.852 649.507 333.232 649.524 330.731C649.529 330.002 649.531 329.367 649.533 328.835L649.535 328.503L649.23 328.373L517.191 271.91L516.995 271.826L516.799 271.909Z" fill="black" stroke="black" style="fill:black;fill-opacity:1;stroke:black;stroke-opacity:1;"/>
<path d="M575.622 484.575L517.62 437.586L517.305 437.331L516.99 437.586L459.048 484.575L517.305 343.51L575.622 484.575Z" fill="black" stroke="black" style="fill:black;fill-opacity:1;stroke:black;stroke-opacity:1;"/>
</svg>
