<svg width="1034" height="829" viewBox="0 0 1034 829" fill="none" xmlns="http://www.w3.org/2000/svg">
<path d="M516.836 630.764C800.896 630.764 1031.18 533.806 1031.18 414.202C1031.18 294.598 800.896 197.64 516.836 197.64C232.776 197.64 2.5 294.598 2.5 414.202C2.5 533.806 232.776 630.764 516.836 630.764Z" stroke="white" style="stroke:white;stroke-opacity:1;" stroke-width="5"/>
<path d="M338.665 517.069C465.744 737.182 648.532 869.552 746.934 812.742C845.336 755.932 822.087 531.443 695.007 311.335C567.928 91.2266 385.14 -41.1514 286.738 15.6606C188.337 72.4726 211.585 296.961 338.665 517.069Z" stroke="white" style="stroke:white;stroke-opacity:1;" stroke-width="5"/>
<path d="M352.731 319.456C240.602 513.669 223.176 713.529 313.809 765.852C404.441 818.182 568.812 703.161 680.941 508.948C793.07 314.735 810.496 114.875 719.863 62.5478C629.231 10.2218 464.86 125.243 352.731 319.456Z" stroke="white" style="stroke:white;stroke-opacity:1;" stroke-width="5"/>
<path fill-rule="evenodd" clip-rule="evenodd" d="M655.041 324.877V326.856H652.041C654.882 326.856 655.033 326.856 655.041 326.856V327.117C655.041 327.288 655.04 327.541 655.039 327.873C655.037 328.536 655.033 329.513 655.024 330.769C655.007 333.283 654.972 336.919 654.903 341.41C654.766 350.392 654.491 362.804 653.94 376.518C652.842 403.872 650.64 436.669 646.187 457.723C643.782 469.091 634.109 481.226 621.742 492.804C609.246 504.502 593.486 516.093 578.091 526.323C562.681 536.563 547.557 545.491 536.293 551.856C530.659 555.04 525.986 557.585 522.718 559.336C521.084 560.211 519.801 560.889 518.925 561.348C518.487 561.577 518.151 561.752 517.923 561.87C517.809 561.929 517.722 561.974 517.663 562.004C517.634 562.019 517.612 562.031 517.597 562.039C517.589 562.043 517.583 562.046 517.579 562.048C517.577 562.049 517.574 562.05 517.574 562.05L516.202 559.383L517.572 562.051L516.202 562.755L514.831 562.051L516.202 559.383L514.829 562.05L514.808 562.039C514.792 562.031 514.77 562.019 514.74 562.004C514.682 561.974 514.595 561.929 514.481 561.87C514.254 561.752 513.917 561.577 513.48 561.348C512.604 560.889 511.321 560.211 509.687 559.336C506.419 557.585 501.745 555.04 496.11 551.856C484.846 545.491 469.723 536.563 454.313 526.323C438.917 516.093 423.157 504.502 410.661 492.804C398.295 481.226 388.621 469.091 386.217 457.723C381.761 436.657 379.761 403.796 378.862 376.39C378.412 362.647 378.236 350.208 378.174 341.205C378.143 336.703 378.14 333.058 378.145 330.538C378.147 329.278 378.151 328.299 378.154 327.635C378.156 327.302 378.158 327.048 378.159 326.877C378.16 326.791 378.161 326.726 378.161 326.682V326.617C378.161 326.617 378.162 326.615 381.161 326.642L378.161 326.615L378.18 324.647L517.007 265.849L655.041 324.877ZM384.15 328.634C384.148 329.17 384.146 329.811 384.145 330.55C384.14 333.054 384.143 336.681 384.174 341.163C384.236 350.129 384.411 362.514 384.859 376.192C385.759 403.628 387.754 435.998 392.087 456.482C394.077 465.89 402.483 476.928 414.762 488.424C426.912 499.798 442.365 511.179 457.634 521.325C472.887 531.461 487.878 540.313 499.063 546.633C504.652 549.791 509.286 552.315 512.52 554.048C514.098 554.893 515.342 555.55 516.201 556C517.06 555.55 518.305 554.893 519.884 554.048C523.118 552.315 527.752 549.791 533.342 546.633C544.526 540.313 559.517 531.461 574.771 521.325C590.039 511.179 605.492 499.798 617.642 488.424C629.921 476.928 638.326 465.89 640.316 456.482C644.652 435.986 646.846 403.66 647.945 376.278C648.493 362.625 648.767 350.265 648.904 341.318C648.973 336.846 649.007 333.227 649.024 330.728C649.029 329.999 649.031 329.365 649.033 328.833L516.994 272.37L384.15 328.634Z" fill="white" style="fill:white;fill-opacity:1;"/>
<path d="M457.836 486.202L517.305 437.975L576.836 486.202L517.305 342.202L457.836 486.202Z" fill="white" style="fill:white;fill-opacity:1;"/>
</svg>
